<?xml version="1.0" encoding="UTF-8" standalone="no"?>
<!-- Created with Inkscape (http://www.inkscape.org/) -->

<svg
   xmlns:dc="http://purl.org/dc/elements/1.1/"
   xmlns:cc="http://creativecommons.org/ns#"
   xmlns:rdf="http://www.w3.org/1999/02/22-rdf-syntax-ns#"
   xmlns:svg="http://www.w3.org/2000/svg"
   xmlns="http://www.w3.org/2000/svg"
   xmlns:sodipodi="http://sodipodi.sourceforge.net/DTD/sodipodi-0.dtd"
   xmlns:inkscape="http://www.inkscape.org/namespaces/inkscape"
   width="210mm"
   height="297mm"
   viewBox="0 0 210 297"
   version="1.1"
   id="svg263"
   inkscape:version="0.92.2 (5c3e80d, 2017-08-06)">
  <defs
     id="defs257" />
  <sodipodi:namedview
     id="base"
     pagecolor="#ffffff"
     bordercolor="#666666"
     borderopacity="1.0"
     inkscape:pageopacity="0.0"
     inkscape:pageshadow="2"
     inkscape:zoom="2.8"
     inkscape:cx="114.75128"
     inkscape:cy="1086.3858"
     inkscape:document-units="mm"
     inkscape:current-layer="layer1"
     showgrid="false"
     inkscape:window-width="1366"
     inkscape:window-height="705"
     inkscape:window-x="-8"
     inkscape:window-y="-8"
     inkscape:window-maximized="1" />
  <metadata
     id="metadata260">
    <rdf:RDF>
      <cc:Work
         rdf:about="">
        <dc:format>image/svg+xml</dc:format>
        <dc:type
           rdf:resource="http://purl.org/dc/dcmitype/StillImage" />
        <dc:title></dc:title>
      </cc:Work>
    </rdf:RDF>
  </metadata>
  <g
     inkscape:label="Layer 1"
     inkscape:groupmode="layer"
     id="layer1">
    <path
       style="fill:#ffffff;stroke-width:1"
       d="m 10.286263,16.985995 c 2.886454,-0.65055 5.672694,-2.22058 10.031093,-5.6525 0.122985,-0.0968 0.159812,0.006 0.159812,0.44394 0,0.52015 -0.03062,0.57586 -0.351586,0.63973 -0.355866,0.0708 -1.297224,0.70535 -1.305799,0.8802 -0.0026,0.0523 0.340535,0.095 0.762439,0.095 0.733003,0 0.767097,0.0141 0.767097,0.31672 0,0.28505 0.05114,0.31672 0.511398,0.31672 h 0.511398 v -1.90032 -1.90032 h -0.70785 -0.707852 l -1.677543,1.34538 c -3.125337,2.50651 -5.916299,4.15022 -8.027094,4.72749 -1.676263,0.45842 -3.398642,0.31478 -4.134127,-0.34477 -0.845617,-0.75832 -0.811595,-2.11935 0.0737,-2.94832 0.738251,-0.69129 2.400847,-1.13284 4.265549,-1.13284 0.612381,0 1.079154,-0.034 1.037275,-0.0754 -0.164103,-0.16261 -2.519286,-0.2709 -3.582044,-0.16469 -2.094437,0.2093 -3.032604,1.08733 -3.032604,2.83823 0,1.15669 0.539195,1.95436 1.662044,2.45879 0.729909,0.3279 2.428015,0.35375 3.744693,0.057 z m -6.091686,-2.86516 c 0.0053,-1.86188 1.564215,-3.19476 4.413086,-3.77313 1.613364,-0.32754 5.491599,-0.5428502 7.842245,-0.4353802 1.054759,0.0482 1.886572,0.0552 1.848473,0.0155 -0.126366,-0.13169 -3.012736,-0.45677 -4.810748,-0.54182 C 9.35132,9.1903448 4.920411,10.109125 3.1694833,11.525545 l -0.367624,0.29739 0.67627,1.54485 c 0.371948,0.84967 0.6848047,1.54485 0.6952377,1.54485 0.01043,0 0.01998,-0.35631 0.02121,-0.7918 z m 10.017965,-1.54464 v -1.70301 l 0.54336,-0.039 c 0.451695,-0.0324 0.550253,-0.087 0.584215,-0.324 0.04035,-0.28151 0.02251,-0.28505 -1.438307,-0.28505 h -1.479162 v 0.31672 c 0,0.28505 0.05114,0.31672 0.511398,0.31672 h 0.511399 v 1.62583 c 0,0.89421 0.03835,1.66384 0.08523,1.71029 0.04688,0.0464 0.219475,0.0845 0.383548,0.0845 0.297727,0 0.298316,-0.003 0.298316,-1.70301 z m 8.694346,0.94185 c 0.478022,-0.84213 0.505161,-0.83964 1.012643,0.0929 0.276129,0.50741 0.396181,0.61132 0.744709,0.64462 0.228531,0.0218 0.415511,0.002 0.415511,-0.0451 0,-0.0466 -0.258895,-0.54097 -0.575323,-1.09854 -0.316427,-0.55756 -0.575323,-1.0351 -0.575323,-1.0612 0,-0.0261 0.23013,-0.42002 0.511399,-0.87538 0.281268,-0.45537 0.511398,-0.85544 0.511398,-0.88905 0,-0.0336 -0.159416,-0.0611 -0.354257,-0.0611 -0.288066,0 -0.412979,0.10652 -0.66854,0.57009 -0.172856,0.31356 -0.34717,0.5701 -0.387364,0.5701 -0.0402,0 -0.198863,-0.25654 -0.352595,-0.5701 -0.252461,-0.51492 -0.322983,-0.57009 -0.728648,-0.57009 -0.247025,0 -0.449135,0.0328 -0.449135,0.0729 0,0.0401 0.233464,0.46903 0.51881,0.95317 l 0.518811,0.88025 -0.478335,0.78879 c -0.263085,0.43384 -0.560698,0.91707 -0.661364,1.07384 -0.174648,0.272 -0.16589,0.28505 0.191262,0.28505 0.324347,0 0.43194,-0.10156 0.806341,-0.76115 z m 3.579208,-2.54115 V 7.6745948 l -0.351586,0.0401 c -0.270818,0.0309 -0.349488,0.10557 -0.342454,0.32513 0.005,0.15678 0.0194,1.62477 0.03196,3.2622202 l 0.02283,2.97716 h 0.319624 0.319624 z m 2.292012,2.9685 c 0.513154,-0.64645 0.227162,-1.30415 -0.693893,-1.59575 -0.440789,-0.13955 -0.511398,-0.2124 -0.511398,-0.52761 0,-0.53357 0.325115,-0.6881 0.888059,-0.42209 0.453641,0.21436 0.454361,0.21423 0.454361,-0.0852 0,-0.31925 -0.270842,-0.4512 -0.93272,-0.4544 -0.473199,-0.002 -0.985023,0.51024 -0.985023,0.98638 0,0.43819 0.288155,0.72248 0.967349,0.95439 0.403244,0.13768 0.511284,0.24195 0.545121,0.5261 0.02362,0.19835 -0.03267,0.40142 -0.127849,0.46121 -0.269432,0.16925 -0.791053,0.12824 -1.100474,-0.0865 -0.270686,-0.18788 -0.284147,-0.18237 -0.284147,0.11613 0,0.37391 0.130303,0.43798 0.91763,0.45114 0.500256,0.008 0.641318,-0.0446 0.862984,-0.3238 z M 19.96577,9.5689348 v -0.52955 l 0.457436,0.52955 c 0.25159,0.29126 0.568017,0.5295602 0.703172,0.5295602 0.339509,0 0.308672,-0.1120502 -0.191763,-0.6967902 l -0.433695,-0.50675 0.444157,-0.53842 c 0.424743,-0.51489 0.431474,-0.53843 0.154023,-0.53843 -0.159574,0 -0.479854,0.18222 -0.711732,0.40492 l -0.421598,0.40492 v -0.40492 c 0,-0.32046 -0.05333,-0.40492 -0.255699,-0.40492 -0.236758,0 -0.255699,0.0845 -0.255699,1.1402 0,1.0557302 0.01894,1.1401902 0.255699,1.1401902 0.214918,0 0.255699,-0.0845 0.255699,-0.5295602 z m 2.402156,-0.64231 0.03694,-1.10852 h -0.324602 c -0.323709,0 -0.324601,0.003 -0.324601,1.14901 0,1.1190902 0.0075,1.1479502 0.287661,1.1085202 0.269939,-0.038 0.289937,-0.1087802 0.324602,-1.1490102 z m 1.483313,0.5701 c 0.06281,-0.29613 0.15538,-0.53842 0.205716,-0.53842 0.05034,0 0.142908,0.24229 0.205716,0.53842 0.08621,0.40646 0.180409,0.5477902 0.384356,0.5766502 0.239785,0.0339 0.300859,-0.0831 0.543216,-1.0405902 0.329325,-1.30113 0.327109,-1.21468 0.03114,-1.21468 -0.187903,0 -0.283081,0.16265 -0.426269,0.72846 l -0.184348,0.72846 -0.1694,-0.72846 c -0.1236,-0.5315 -0.227532,-0.72846 -0.38441,-0.72846 -0.156878,0 -0.260811,0.19696 -0.38441,0.72846 l -0.1694,0.72846 -0.184348,-0.72846 c -0.143188,-0.56581 -0.238366,-0.72846 -0.426269,-0.72846 -0.29597,0 -0.298186,-0.0864 0.03114,1.21468 0.242357,0.95753 0.303431,1.0745202 0.543216,1.0405902 0.203947,-0.0289 0.298148,-0.1701902 0.384356,-0.5766502 z m 7.36529,-0.18769 c -0.175794,-0.0764 -1.499036,-0.72041 -2.94054,-1.43116 -2.926281,-1.44286 -4.270846,-1.94312 -5.497529,-2.04543 -0.980572,-0.0818 -2.690535,0.18638 -4.236382,0.66436 -1.197953,0.37041 -3.51746,1.44886 -4.585235,2.13189 l -0.703173,0.44981 1.26468,0.003 1.264679,0.003 0.842986,-0.52756 c 1.206836,-0.75526 2.479995,-1.30157 3.794597,-1.62827 2.035957,-0.50596 4.118123,-0.18063 7.08828,1.10751 1.334194,0.57864 3.654956,1.42042 3.89941,1.41439 0.07032,-0.002 -0.01598,-0.0656 -0.191773,-0.14203 z"
       id="path222"
       inkscape:connector-curvature="0"
       sodipodi:nodetypes="ccsccssscccccssssscssscccsccsscssccccccscsscscscccccssscsscssssscscsccccccccccccsssscsscccscccsccsscssccsssssscsscscscssscccssccscccccscssccccssccc" />
  </g>
</svg>
